<svg xmlns="http://www.w3.org/2000/svg" xmlns:xlink="http://www.w3.org/1999/xlink" width="612" zoomAndPan="magnify" viewBox="0 0 458.88 383.999986" height="512" preserveAspectRatio="xMidYMid meet" version="1.0"><defs><g/><clipPath id="b36e9f74c0"><path d="M 126.003906 75.558594 L 332 75.558594 L 332 194.027344 L 126.003906 194.027344 Z M 126.003906 75.558594 " clip-rule="nonzero"/></clipPath></defs><path fill="#fce64d" d="M 164.898438 164.660156 L 291.734375 164.660156 C 291.734375 164.660156 300.867188 123.148438 314.054688 123.148438 C 322.660156 123.148438 327.378906 152.441406 329.621094 172.808594 C 330.746094 183.050781 322.710938 191.996094 312.382812 191.996094 L 146.128906 191.996094 C 135.5 191.996094 127.378906 182.542969 128.988281 172.058594 C 132.015625 152.363281 137.480469 125.167969 144.605469 125.167969 C 156.78125 125.167969 164.898438 164.660156 164.898438 164.660156 Z M 164.898438 164.660156 " fill-opacity="1" fill-rule="nonzero"/><path fill="#e5c928" d="M 312.382812 191.996094 L 146.128906 191.996094 C 139.664062 191.996094 134.140625 188.488281 131.15625 183.386719 C 150.652344 183.386719 251.78125 183.386719 290.214844 183.386719 C 332.832031 183.386719 325.222656 147.996094 325.222656 147.996094 L 326.300781 149.796875 C 327.753906 157.46875 328.84375 165.679688 329.625 172.808594 C 330.746094 183.050781 322.710938 191.996094 312.382812 191.996094 Z M 312.382812 191.996094 " fill-opacity="1" fill-rule="nonzero"/><path fill="#ffffff" d="M 166.925781 165.667969 C 152.71875 165.667969 152.71875 135.296875 155.765625 112.007812 C 158.808594 88.71875 164.898438 77.582031 169.96875 77.582031 C 175.042969 77.582031 176.058594 84.667969 176.058594 84.667969 C 176.058594 84.667969 187.222656 83.652344 198.382812 84.667969 C 198.382812 84.667969 201.425781 77.582031 205.484375 77.582031 C 209.542969 77.582031 213.601562 88.71875 216.644531 97.832031 C 216.644531 97.832031 256.21875 82.644531 283.613281 101.882812 C 305.25 117.078125 300.9375 148.054688 298.167969 160.414062 C 297.480469 163.492188 294.730469 165.671875 291.570312 165.671875 L 166.925781 165.671875 Z M 166.925781 165.667969 " fill-opacity="1" fill-rule="nonzero"/><path fill="#fdf5d8" d="M 177.875 164.304688 L 178.71875 164.316406 C 178.179688 164.3125 177.875 164.304688 177.875 164.304688 Z M 295.1875 115.289062 C 294.488281 127.449219 277.355469 158.929688 245.03125 164.980469 L 254.695312 152 C 254.695312 152 245.5625 153.015625 243.578125 142.289062 C 233.476562 163.960938 210.046875 154.023438 210.046875 154.023438 C 210.046875 164.09375 183.769531 164.359375 178.714844 164.316406 L 243.484375 165.261719 C 242.5 165.417969 241.5 165.558594 240.488281 165.667969 L 291.5625 165.667969 C 294.726562 165.667969 297.476562 163.488281 298.164062 160.410156 C 300.269531 151.0625 303.238281 131.058594 295.1875 115.289062 Z M 295.1875 115.289062 " fill-opacity="1" fill-rule="nonzero"/><g clip-path="url(#b36e9f74c0)"><path fill="#6e4139" d="M 196.355469 104.921875 C 196.355469 103.246094 197.71875 101.882812 199.398438 101.882812 C 201.078125 101.882812 202.441406 103.246094 202.441406 104.921875 C 202.441406 106.597656 201.078125 107.960938 199.398438 107.960938 C 197.71875 107.960938 196.355469 106.597656 196.355469 104.921875 Z M 174.03125 107.960938 C 175.710938 107.960938 177.074219 106.597656 177.074219 104.921875 C 177.074219 103.246094 175.710938 101.882812 174.03125 101.882812 C 172.351562 101.882812 170.988281 103.246094 170.988281 104.921875 C 170.988281 106.597656 172.351562 107.960938 174.03125 107.960938 Z M 183.441406 108.925781 L 185.585938 110.53125 C 185.953125 110.808594 186.457031 110.808594 186.824219 110.53125 L 189.023438 108.886719 C 189.648438 108.421875 189.558594 107.4375 188.84375 107.121094 C 186.824219 106.25 184.925781 106.644531 183.667969 107.144531 C 182.921875 107.445312 182.800781 108.445312 183.441406 108.925781 Z M 176.160156 116.429688 C 175.804688 117.492188 176.382812 118.636719 177.445312 118.992188 C 179.589844 119.703125 183.59375 120.039062 186.257812 117.527344 C 187.496094 118.664062 189.257812 119.578125 191.578125 119.578125 C 192.597656 119.578125 193.722656 119.402344 194.960938 118.992188 C 196.023438 118.636719 196.597656 117.492188 196.242188 116.429688 C 195.886719 115.371094 194.738281 114.796875 193.679688 115.152344 C 189.6875 116.476562 188.3125 113.808594 188.085938 113.28125 C 187.777344 112.515625 187.03125 112.011719 186.199219 112.011719 C 185.371094 112.011719 184.625 112.515625 184.316406 113.28125 C 183.054688 116.433594 179.167969 115.292969 178.71875 115.152344 C 177.664062 114.796875 176.515625 115.371094 176.160156 116.429688 Z M 326.808594 187.59375 C 323.136719 191.679688 317.878906 194.019531 312.382812 194.019531 L 146.128906 194.019531 C 140.472656 194.019531 135.113281 191.5625 131.429688 187.28125 C 127.742188 182.996094 126.121094 177.339844 126.980469 171.753906 C 128.941406 158.988281 131.070312 148.535156 133.308594 140.679688 C 136.757812 128.550781 140.242188 123.148438 144.605469 123.148438 C 147.421875 123.148438 149.996094 124.777344 152.316406 127.386719 C 152.632812 121.210938 153.25 115.609375 153.753906 111.75 C 156.714844 89.085938 162.777344 75.558594 169.96875 75.558594 C 174.429688 75.558594 176.726562 79.351562 177.660156 82.515625 C 181.089844 82.289062 188.953125 81.90625 197.164062 82.535156 C 198.421875 80.144531 201.371094 75.558594 205.484375 75.558594 C 210.144531 75.558594 213.640625 82.742188 217.910156 95.242188 C 221.496094 94.054688 229.570312 91.683594 239.644531 90.628906 C 257.566406 88.757812 273.175781 92.074219 284.78125 100.222656 C 295.789062 107.957031 300.398438 119.480469 301.902344 130.761719 C 305.328125 125.15625 309.402344 121.117188 314.054688 121.117188 C 317.003906 121.117188 325.976562 121.117188 331.636719 172.582031 C 332.238281 178.039062 330.480469 183.507812 326.808594 187.59375 Z M 161.714844 161.1875 C 162.988281 162.636719 164.453125 163.429688 166.171875 163.605469 C 164.871094 161.15625 164.804688 157.921875 165.996094 153.953125 C 169.375 142.710938 193.597656 142.386719 196.351562 142.386719 C 197.472656 142.386719 198.378906 143.289062 198.378906 144.410156 C 198.378906 145.527344 197.472656 146.433594 196.351562 146.433594 C 190.160156 146.4375 172.007812 148.039062 169.882812 155.113281 C 168.957031 158.1875 168.972656 160.574219 169.914062 162.019531 C 170.75 163.292969 172.105469 163.519531 172.117188 163.519531 C 172.285156 163.539062 172.445312 163.585938 172.597656 163.644531 L 242.523438 163.644531 C 242.324219 161.003906 242.902344 158.625 244.265625 156.554688 C 245.644531 154.46875 247.605469 153.058594 249.390625 152.128906 C 244.667969 148.921875 237.75 142.144531 240.015625 130.847656 C 242.722656 117.347656 258.617188 115.945312 266.644531 117.089844 C 267.753906 117.246094 268.527344 118.273438 268.371094 119.378906 C 268.210938 120.488281 267.1875 121.261719 266.074219 121.097656 C 266 121.089844 260.929688 120.402344 255.632812 121.480469 C 248.992188 122.828125 245.082031 126.25 243.996094 131.640625 C 241.328125 144.953125 254.382812 150.402344 254.941406 150.628906 C 255.777344 150.964844 256.289062 151.804688 256.199219 152.703125 C 256.117188 153.59375 255.449219 154.324219 254.570312 154.492188 C 254.527344 154.503906 249.824219 155.476562 247.644531 158.804688 C 246.738281 160.183594 246.394531 161.78125 246.59375 163.644531 L 291.5625 163.644531 C 293.800781 163.644531 295.699219 162.132812 296.183594 159.96875 C 298.90625 147.816406 303.023438 117.988281 282.441406 103.539062 C 280.835938 102.410156 279.179688 101.410156 277.492188 100.519531 C 275.757812 107.121094 272.679688 114.035156 267.375 114.035156 C 259.933594 114.035156 259.042969 101.527344 259.09375 94.847656 C 255.777344 94.40625 252.484375 94.21875 249.28125 94.21875 C 248.105469 102.242188 245.335938 113.019531 238.957031 113.019531 C 231.828125 113.019531 230.210938 102.535156 229.878906 96.292969 C 222.429688 97.835938 217.5 99.675781 217.363281 99.726562 C 216.847656 99.921875 216.273438 99.902344 215.769531 99.664062 C 215.269531 99.429688 214.882812 99 214.710938 98.472656 C 209.238281 82.058594 206.578125 79.609375 205.484375 79.609375 C 203.628906 79.609375 201.261719 83.109375 200.246094 85.46875 C 199.898438 86.277344 199.074219 86.769531 198.195312 86.691406 C 196.949219 86.578125 195.703125 86.492188 194.46875 86.425781 C 194.394531 89.953125 193.9375 93.785156 192.292969 93.785156 C 190.40625 93.785156 189.300781 89.507812 188.734375 86.253906 C 187.6875 86.246094 186.675781 86.25 185.710938 86.265625 C 185.140625 89.515625 184.03125 93.785156 182.148438 93.785156 C 180.421875 93.785156 179.671875 89.863281 179.347656 86.480469 C 177.4375 86.585938 176.277344 86.6875 176.242188 86.691406 C 175.175781 86.796875 174.199219 86.027344 174.046875 84.957031 C 174.039062 84.914062 173.210938 79.609375 169.96875 79.609375 C 166.910156 79.609375 160.886719 88.476562 157.777344 112.273438 C 155.332031 130.976562 155.082031 153.648438 161.714844 161.1875 Z M 327.605469 173.027344 C 323.71875 137.703125 317.878906 125.171875 314.058594 125.171875 C 310.039062 125.171875 306 130.769531 302.496094 138.296875 C 302.722656 147.359375 301.324219 155.636719 300.15625 160.855469 C 299.253906 164.882812 295.722656 167.695312 291.574219 167.695312 L 166.925781 167.695312 C 163.683594 167.695312 160.90625 166.402344 158.660156 163.859375 C 153.359375 157.835938 152.007812 145.527344 152.121094 133.835938 C 149.730469 129.816406 147.167969 127.199219 144.597656 127.199219 C 142.121094 127.199219 136.46875 136.714844 130.992188 172.371094 C 130.3125 176.785156 131.597656 181.257812 134.507812 184.648438 C 137.417969 188.03125 141.652344 189.972656 146.125 189.972656 L 312.382812 189.972656 C 316.730469 189.972656 320.886719 188.121094 323.785156 184.886719 C 326.6875 181.660156 328.078125 177.339844 327.605469 173.027344 Z M 327.605469 173.027344 " fill-opacity="1" fill-rule="nonzero"/></g><g fill="#000000" fill-opacity="1"><g transform="translate(162.197629, 248.096649)"><g><path d="M 29.304688 -27.253906 C 29.261719 -26.820312 29.390625 -26.425781 29.652344 -26.121094 L 29.042969 -25.992188 L 28.128906 -25.902344 C 27.429688 -25.773438 26.777344 -25.773438 26.558594 -25.773438 C 26.253906 -25.773438 25.859375 -25.773438 25.207031 -25.816406 L 23.113281 -25.816406 C 22.285156 -25.816406 21.457031 -25.816406 20.582031 -25.859375 C 19.710938 -25.902344 18.925781 -25.902344 18.097656 -25.902344 C 17.269531 -25.902344 16.570312 -25.902344 15.917969 -25.945312 L 14.476562 -25.945312 L 14.566406 -27.734375 C 14.609375 -28.476562 14.652344 -29.21875 14.652344 -29.523438 C 14.523438 -30.265625 14.128906 -30.832031 13.519531 -31.265625 C 12.863281 -31.746094 12.167969 -31.921875 11.601562 -31.921875 C 10.554688 -31.921875 10.203125 -31.050781 10.203125 -30.222656 C 10.203125 -29.304688 10.597656 -28.476562 10.988281 -27.734375 C 11.382812 -26.992188 11.773438 -26.164062 11.773438 -25.25 L 7.152344 -25.25 C 6.847656 -25.25 6.757812 -24.769531 6.628906 -24.117188 C 6.496094 -23.460938 6.453125 -22.765625 6.453125 -22.546875 C 6.453125 -22.371094 6.496094 -21.890625 6.585938 -21.105469 C 6.714844 -19.535156 6.933594 -17.660156 7.414062 -16.265625 C 7.632812 -15.566406 7.847656 -15.21875 8.15625 -15.21875 C 8.808594 -15.21875 9.246094 -15.480469 9.507812 -16.046875 C 9.988281 -17.136719 10.074219 -18.664062 10.203125 -19.886719 C 10.25 -20.539062 10.378906 -20.886719 10.554688 -21.019531 C 10.683594 -21.019531 10.945312 -21.0625 11.339844 -21.195312 C 11.773438 -21.28125 12.078125 -21.324219 12.253906 -21.324219 C 17.53125 -21.847656 23.15625 -22.371094 28.605469 -22.371094 L 33.40625 -22.371094 C 34.058594 -22.023438 34.058594 -21.148438 34.058594 -20.496094 C 34.058594 -19.84375 34.015625 -19.273438 33.882812 -18.707031 C 33.753906 -18.140625 33.710938 -17.574219 33.710938 -16.921875 C 33.710938 -16.046875 33.710938 -14.871094 34.929688 -14.871094 C 36.28125 -14.871094 36.894531 -15.960938 37.199219 -17.3125 C 37.503906 -18.664062 37.460938 -20.105469 37.460938 -20.84375 L 37.460938 -23.375 C 37.15625 -24.160156 36.847656 -24.683594 36.5 -24.988281 C 35.757812 -25.511719 34.84375 -25.640625 33.664062 -25.6875 C 33.054688 -25.730469 32.402344 -25.902344 31.703125 -26.121094 C 32.269531 -26.515625 32.96875 -27.167969 33.492188 -27.910156 C 34.015625 -28.652344 34.40625 -29.480469 34.40625 -30.351562 C 34.40625 -31.050781 34.320312 -31.835938 34.015625 -32.53125 C 33.710938 -33.1875 33.230469 -33.621094 32.359375 -33.621094 C 31.441406 -33.621094 30.65625 -32.664062 30.132812 -31.574219 C 29.609375 -30.484375 29.304688 -29.175781 29.304688 -28.476562 Z M 14.304688 -17.75 C 14.304688 -16.875 14.695312 -16.484375 15.261719 -16.179688 C 15.785156 -15.875 16.527344 -15.875 17.226562 -15.875 C 18.226562 -15.875 19.273438 -15.917969 20.277344 -16.046875 C 21.28125 -16.179688 22.328125 -16.222656 23.332031 -16.222656 C 23.679688 -16.222656 23.679688 -16.222656 23.855469 -15.875 L 23.636719 -15.21875 C 23.503906 -14.914062 23.460938 -14.566406 23.332031 -14.214844 L 22.808594 -12.472656 C 22.675781 -11.992188 22.152344 -11.292969 21.457031 -11.121094 C 21.148438 -11.121094 20.671875 -11.121094 19.972656 -11.078125 L 17.707031 -10.945312 C 16.136719 -10.816406 14.523438 -10.769531 13.953125 -10.769531 C 13.648438 -10.769531 13.429688 -10.683594 13.300781 -10.464844 C 12.996094 -9.988281 12.953125 -9.375 12.953125 -8.722656 L 12.953125 -7.019531 C 12.953125 -6.847656 13.476562 -6.367188 13.605469 -6.367188 L 22.980469 -6.367188 C 22.980469 -6.324219 23.027344 -6.191406 23.070312 -6.019531 C 23.113281 -5.84375 23.15625 -5.710938 23.15625 -5.667969 C 22.632812 -4.144531 21.980469 -3.96875 21.148438 -3.925781 C 20.320312 -3.882812 19.582031 -3.96875 19.058594 -2.964844 C 18.925781 -2.789062 18.75 -1.746094 18.75 -1.570312 C 18.75 -0.828125 19.625 -0.304688 20.671875 0 C 21.671875 0.304688 22.808594 0.4375 23.332031 0.4375 C 25.207031 0.4375 26.164062 -0.4375 26.6875 -1.789062 C 27.210938 -3.140625 27.253906 -4.796875 27.253906 -6.367188 L 27.605469 -6.671875 L 32.707031 -6.671875 C 32.882812 -6.671875 33.621094 -7.414062 33.753906 -8.109375 C 33.753906 -8.460938 33.710938 -9.027344 33.664062 -9.507812 L 33.578125 -10.335938 L 33.316406 -10.507812 C 33.097656 -10.640625 31.921875 -10.554688 31.617188 -10.683594 C 31.441406 -10.726562 31.355469 -10.769531 31.355469 -10.769531 L 27.253906 -10.769531 L 26.558594 -11.121094 C 26.730469 -11.46875 27.125 -12.472656 27.515625 -13.519531 C 27.867188 -14.523438 28.214844 -15.523438 28.257812 -15.875 L 28.257812 -18.621094 L 27.777344 -19.144531 L 27.253906 -19.625 L 27.039062 -19.753906 C 26.863281 -19.753906 26.6875 -19.84375 26.558594 -19.972656 L 15.351562 -19.972656 C 15.132812 -19.796875 14.957031 -19.667969 14.828125 -19.492188 C 14.785156 -19.363281 14.695312 -19.363281 14.652344 -19.320312 C 14.390625 -19.058594 14.261719 -18.839844 14.304688 -18.621094 Z M 19.058594 -31.398438 C 19.058594 -30.699219 19.320312 -29.480469 19.84375 -28.433594 C 20.320312 -27.386719 21.0625 -26.46875 21.980469 -26.46875 C 22.851562 -26.46875 23.285156 -26.949219 23.59375 -27.648438 C 23.898438 -28.300781 23.855469 -29.042969 23.855469 -29.699219 C 23.855469 -31.746094 22.851562 -33.273438 20.800781 -33.273438 C 19.753906 -33.273438 19.058594 -32.402344 19.058594 -31.398438 Z M 19.058594 -31.398438 "/></g></g></g><g fill="#000000" fill-opacity="1"><g transform="translate(207.636337, 248.096649)"><g><path d="M 14.476562 -14.609375 C 13.648438 -14.433594 13.824219 -13.78125 13.824219 -13.082031 C 13.824219 -11.730469 14.304688 -10.859375 15.875 -10.859375 L 16.527344 -10.859375 C 16.660156 -10.859375 16.964844 -10.902344 17.488281 -10.988281 L 19.101562 -11.207031 L 20.714844 -11.46875 C 21.195312 -11.511719 21.5 -11.554688 21.628906 -11.554688 L 23.285156 -11.46875 C 23.941406 -11.425781 24.59375 -11.382812 24.902344 -11.382812 C 24.902344 -11.25 24.902344 -11.207031 24.945312 -11.164062 C 24.59375 -10.597656 24.246094 -10.117188 23.898438 -9.726562 C 23.242188 -8.984375 22.414062 -8.328125 21.585938 -8.199219 C 19.710938 -7.894531 17.183594 -8.023438 15.613281 -7.894531 C 14.042969 -7.761719 12.515625 -7.675781 10.726562 -7.804688 C 9.898438 -7.109375 9.726562 -6.628906 9.726562 -5.582031 C 9.726562 -4.535156 10.160156 -3.925781 10.816406 -3.574219 C 11.46875 -3.183594 12.386719 -3.050781 13.300781 -3.050781 C 14.652344 -3.050781 15.875 -3.183594 17.136719 -3.402344 C 18.316406 -3.621094 19.625 -3.707031 20.976562 -3.707031 L 20.976562 -1.222656 C 20.453125 -1.222656 19.753906 -1.089844 19.230469 -0.785156 C 18.664062 -0.480469 18.226562 -0.0429688 18.226562 0.609375 L 18.226562 0.785156 C 18.402344 1.308594 18.707031 1.746094 19.144531 2.09375 L 20.277344 3.183594 C 20.671875 3.445312 21.019531 3.574219 21.324219 3.53125 L 23.460938 3.53125 C 23.679688 3.574219 23.984375 3.445312 24.378906 3.183594 L 24.988281 2.660156 C 25.511719 2.3125 25.859375 1.527344 26.164062 0.871094 C 26.296875 0.566406 26.339844 -0.785156 26.46875 -2.007812 L 26.601562 -4.40625 C 26.820312 -4.40625 27.210938 -4.449219 27.777344 -4.492188 C 28.957031 -4.621094 30.222656 -4.753906 31.398438 -4.929688 C 32.574219 -5.058594 32.488281 -5.015625 33.230469 -5.277344 C 33.621094 -5.363281 33.839844 -5.40625 33.925781 -5.40625 C 34.234375 -5.496094 34.449219 -5.582031 34.582031 -5.667969 C 34.800781 -5.800781 34.886719 -6.0625 34.886719 -6.453125 C 34.84375 -6.804688 34.886719 -7.109375 35.105469 -7.632812 C 35.234375 -7.847656 35.28125 -8.023438 35.28125 -8.15625 C 35.28125 -8.242188 35.234375 -8.328125 35.148438 -8.417969 C 34.972656 -8.546875 34.667969 -8.722656 34.234375 -8.851562 L 27.910156 -8.851562 C 29.304688 -9.59375 29.828125 -11.207031 29.828125 -12.558594 C 29.828125 -13.953125 28.476562 -15.132812 27.082031 -14.957031 L 22.851562 -14.957031 C 19.753906 -14.957031 17.574219 -14.957031 14.476562 -14.609375 Z M 12.777344 -21.105469 C 12.777344 -20.976562 12.777344 -20.84375 12.820312 -20.628906 C 12.863281 -20.105469 12.953125 -19.492188 13.082031 -18.96875 C 13.125 -18.664062 13.125 -18.488281 13.125 -18.359375 C 13.167969 -18.011719 13.300781 -17.445312 13.519531 -16.964844 C 13.691406 -16.441406 13.953125 -16.003906 14.476562 -16.003906 L 27.429688 -16.003906 C 27.5625 -16.003906 27.734375 -16.003906 27.867188 -16.046875 C 28.257812 -16.046875 28.78125 -16.136719 29.128906 -16.179688 C 29.480469 -16.222656 29.480469 -16.265625 29.699219 -16.441406 L 30.003906 -16.789062 C 30.222656 -17.09375 30.4375 -17.226562 30.484375 -17.355469 C 30.746094 -17.75 30.875 -18.140625 30.875 -18.535156 C 30.832031 -18.925781 30.832031 -19.273438 30.832031 -19.753906 C 30.832031 -19.886719 30.832031 -20.015625 30.875 -20.148438 C 30.917969 -20.628906 31.003906 -21.195312 31.136719 -21.671875 C 31.179688 -21.890625 31.179688 -22.066406 31.179688 -22.109375 L 31.179688 -22.285156 C 31.179688 -22.503906 31.179688 -22.71875 31.136719 -23.027344 C 31.003906 -23.59375 30.789062 -24.117188 30.484375 -24.507812 C 30.132812 -24.855469 29.785156 -24.855469 29.128906 -24.902344 C 28.476562 -24.945312 27.734375 -25.03125 27.082031 -25.164062 C 26.777344 -25.207031 26.558594 -25.207031 26.425781 -25.207031 C 26.253906 -25.207031 25.730469 -25.207031 24.8125 -25.25 L 21.671875 -25.378906 C 19.363281 -25.511719 16.789062 -25.511719 15.523438 -25.511719 L 14.476562 -25.511719 C 12.777344 -25.511719 12.777344 -24.507812 12.777344 -22.808594 Z M 19.1875 -30.65625 C 18.796875 -30.65625 16.570312 -30.65625 15.523438 -30.527344 C 14.476562 -30.394531 13.476562 -30.351562 13.125 -30.351562 C 12.648438 -30.308594 12.167969 -30.265625 11.644531 -30.265625 C 11.078125 -30.265625 10.597656 -30.222656 10.203125 -30.089844 C 9.332031 -29.871094 8.679688 -29.609375 8.679688 -28.257812 C 8.679688 -28.039062 8.722656 -27.867188 9.027344 -27.5625 C 9.246094 -27.167969 9.679688 -26.777344 10.074219 -26.558594 C 14.566406 -26.425781 18.578125 -26.339844 22.152344 -26.382812 C 28.214844 -26.382812 34.449219 -26.6875 35.019531 -27.5625 L 34.929688 -28.914062 C 34.929688 -29.609375 33.925781 -30.308594 33.230469 -30.308594 L 25.335938 -30.308594 C 25.207031 -31.003906 24.945312 -32.097656 24.464844 -33.011719 C 23.941406 -33.925781 23.199219 -34.710938 22.285156 -34.710938 C 21.238281 -34.710938 20.058594 -34.058594 19.535156 -33.011719 L 19.535156 -31.003906 C 19.535156 -30.789062 19.40625 -30.65625 19.1875 -30.65625 Z M 16.527344 -19.753906 C 16.527344 -19.886719 16.570312 -20.105469 16.613281 -20.410156 C 16.660156 -20.800781 16.746094 -21.148438 16.875 -21.457031 C 16.875 -21.585938 16.921875 -21.628906 17.050781 -21.671875 L 17.226562 -21.761719 L 26.425781 -21.761719 L 26.425781 -19.40625 L 17.226562 -19.40625 Z M 16.527344 -19.753906 "/></g></g></g><g fill="#000000" fill-opacity="1"><g transform="translate(253.075045, 248.096649)"><g><path d="M 23.765625 1.175781 C 26.253906 1.132812 29.261719 1.046875 31.746094 0.914062 C 33.011719 0.871094 33.882812 0.871094 34.40625 0.871094 L 36.109375 0.871094 C 36.761719 0.914062 37.328125 0.785156 37.808594 0.523438 C 38.507812 0.175781 38.898438 -0.4375 39.203125 -1.265625 C 39.507812 -2.09375 39.507812 -2.921875 39.507812 -3.488281 L 39.507812 -6.757812 C 39.507812 -8.984375 39.597656 -10.816406 38.941406 -12.167969 C 38.289062 -13.519531 37.023438 -14.261719 34.40625 -14.390625 C 34.1875 -14.390625 33.710938 -14.390625 32.96875 -14.433594 C 32.226562 -14.433594 31.398438 -14.433594 30.394531 -14.476562 L 27.253906 -14.566406 L 24.117188 -14.652344 L 21.542969 -14.738281 L 18.925781 -14.738281 C 17.707031 -14.738281 16.351562 -14.390625 16.351562 -13.039062 L 16.351562 -0.785156 C 16.351562 0.261719 17.488281 1.394531 23.765625 1.175781 Z M 19.582031 -27.429688 C 19.449219 -27.429688 19.230469 -27.429688 18.925781 -27.386719 L 17.96875 -27.253906 C 17.269531 -27.125 16.570312 -27.082031 16.351562 -27.082031 C 15.351562 -26.949219 14.304688 -26.078125 14.304688 -24.902344 C 14.304688 -24.378906 14.347656 -23.722656 14.652344 -23.070312 C 14.785156 -22.765625 16.046875 -22.589844 17.3125 -22.457031 C 18.054688 -22.371094 18.839844 -22.328125 19.753906 -22.328125 L 20.453125 -18.621094 C 20.453125 -18.273438 20.714844 -18.011719 21.28125 -17.878906 C 21.761719 -17.707031 22.152344 -17.617188 22.503906 -17.617188 C 22.808594 -17.617188 23.460938 -17.53125 23.636719 -17.835938 C 24.203125 -18.75 24.246094 -19.753906 24.027344 -22.71875 C 24.203125 -22.71875 24.378906 -22.675781 24.769531 -22.71875 C 25.511719 -22.71875 29.21875 -22.9375 29.652344 -22.9375 L 31.355469 -22.675781 C 31.660156 -22.328125 31.398438 -21.890625 31.441406 -21.410156 C 31.484375 -20.933594 31.527344 -20.453125 31.660156 -19.972656 C 31.835938 -18.96875 32.621094 -18.226562 33.882812 -18.226562 C 34.1875 -18.226562 34.40625 -18.273438 34.449219 -18.316406 C 34.496094 -18.445312 34.757812 -18.96875 34.972656 -19.535156 L 35.542969 -21.367188 L 35.757812 -21.980469 C 36.195312 -22.285156 36.542969 -22.414062 36.847656 -22.457031 C 37.109375 -22.457031 39.246094 -23.027344 39.464844 -23.15625 C 39.945312 -23.332031 40.25 -23.722656 40.25 -24.988281 C 40.25 -25.640625 40.207031 -26.078125 40.078125 -26.296875 C 39.816406 -26.820312 37.15625 -26.558594 36.675781 -26.820312 C 36.152344 -27.039062 36.152344 -27.691406 36.019531 -28.433594 C 35.890625 -28.78125 35.804688 -30.003906 35.714844 -30.308594 C 35.496094 -30.960938 35.148438 -31.398438 34.234375 -31.398438 C 33.316406 -31.398438 32.664062 -30.875 32.269531 -30.222656 C 31.921875 -29.480469 31.574219 -27.734375 31.355469 -27.082031 L 28.347656 -27.167969 C 26.820312 -27.210938 25.164062 -27.300781 24.855469 -27.34375 C 24.550781 -27.386719 24.332031 -27.386719 24.203125 -27.386719 C 24.203125 -27.515625 24.203125 -27.605469 24.160156 -27.910156 L 24.027344 -28.78125 C 23.898438 -29.4375 23.855469 -30.003906 23.855469 -30.175781 C 23.679688 -31.355469 22.503906 -31.527344 21.457031 -31.527344 L 20.453125 -31.527344 C 20.277344 -31.527344 19.582031 -31.003906 19.582031 -30.832031 Z M 5.449219 -8.023438 C 6.105469 -8.15625 6.804688 -8.15625 7.542969 -8.199219 C 8.328125 -8.242188 9.070312 -8.328125 9.8125 -8.460938 C 11.339844 -8.765625 12.691406 -9.203125 13.605469 -10.421875 L 13.605469 -15.875 C 13.605469 -16.003906 13.5625 -16.222656 13.519531 -16.570312 L 13.34375 -17.707031 C 13.300781 -18.097656 13.257812 -18.445312 13.125 -18.839844 L 12.953125 -19.625 C 12.953125 -19.929688 12.429688 -20.800781 12.253906 -20.976562 C 11.90625 -21.324219 11.121094 -21.542969 10.292969 -21.71875 C 9.464844 -21.890625 8.546875 -21.980469 8.15625 -21.980469 L 6.105469 -21.980469 C 5.058594 -21.980469 4.011719 -21.980469 3.835938 -21.847656 L 3.402344 -21.628906 C 3.269531 -21.628906 3.183594 -21.585938 3.140625 -21.457031 C 3.097656 -21.410156 3.050781 -21.367188 3.050781 -21.324219 L 3.050781 -8.722656 C 3.53125 -8.503906 3.882812 -8.328125 4.273438 -8.199219 L 4.753906 -8.023438 Z M 29.652344 -10.421875 C 29.652344 -10.816406 29.742188 -11.03125 29.960938 -11.164062 C 30.308594 -11.46875 30.875 -11.511719 31.527344 -11.46875 C 31.835938 -11.425781 32.050781 -11.425781 32.359375 -11.425781 L 33.1875 -11.425781 C 33.492188 -11.425781 33.710938 -11.425781 34.015625 -11.382812 C 34.582031 -11.25 34.929688 -10.945312 35.105469 -10.421875 L 35.28125 -9.8125 C 35.410156 -9.507812 35.453125 -9.246094 35.496094 -8.941406 L 35.671875 -8.109375 L 35.757812 -7.675781 L 35.757812 -5.277344 C 35.757812 -4.929688 35.714844 -4.535156 35.585938 -4.097656 L 35.410156 -3.269531 L 34.757812 -2.921875 L 29.128906 -2.921875 C 29.128906 -3.664062 29.21875 -4.230469 29.390625 -4.578125 C 29.699219 -5.234375 30.175781 -5.320312 30.746094 -5.320312 C 31.3125 -5.277344 31.789062 -5.320312 32.140625 -5.84375 C 32.269531 -6.0625 32.359375 -6.496094 32.359375 -7.152344 C 32.359375 -8.242188 31.703125 -8.460938 31.003906 -8.679688 C 30.308594 -8.851562 29.652344 -9.15625 29.652344 -10.421875 Z M 20.015625 -7.019531 C 20.105469 -8.417969 20.367188 -9.636719 20.800781 -10.726562 C 20.800781 -10.769531 20.84375 -10.859375 20.933594 -10.945312 L 21.105469 -11.078125 L 25.207031 -11.078125 C 25.511719 -11.078125 25.511719 -10.769531 25.554688 -10.464844 L 25.554688 -9.203125 C 25.511719 -8.851562 25.511719 -8.546875 25.207031 -8.546875 L 21.804688 -8.546875 L 21.628906 -8.328125 C 21.5 -8.199219 21.457031 -8.066406 21.457031 -8.023438 L 21.457031 -7.019531 C 21.457031 -6.324219 21.28125 -5.625 22.152344 -5.277344 C 22.242188 -5.277344 22.371094 -5.277344 22.503906 -5.234375 L 23.199219 -5.144531 L 23.855469 -5.015625 C 23.984375 -4.972656 24.070312 -4.972656 24.203125 -4.972656 C 24.332031 -4.972656 24.683594 -4.929688 24.988281 -4.796875 C 25.164062 -4.753906 25.335938 -4.667969 25.554688 -4.621094 C 25.730469 -4.273438 26.078125 -3.097656 26.078125 -2.746094 C 25.730469 -2.746094 24.59375 -2.789062 23.417969 -2.835938 L 20.800781 -2.921875 C 20.628906 -2.921875 19.929688 -3.097656 19.753906 -3.269531 Z M 6.453125 -17.921875 C 6.453125 -18.097656 7.804688 -18.359375 8.15625 -18.359375 L 8.503906 -18.226562 C 8.851562 -18.097656 9.15625 -17.878906 9.375 -17.574219 C 9.726562 -16.921875 9.898438 -16.136719 9.898438 -15.308594 L 9.898438 -12.472656 C 8.851562 -12.296875 7.328125 -12.125 6.148438 -12.125 L 6.148438 -13.476562 C 6.148438 -13.824219 6.191406 -14.785156 6.324219 -15.699219 C 6.453125 -16.613281 6.453125 -17.574219 6.453125 -17.921875 Z M 6.453125 -17.921875 "/></g></g></g><g fill="#000000" fill-opacity="1"><g transform="translate(145.816166, 274.775208)"><g><path d="M 17.488281 -5.625 L 17.488281 -7.207031 L 1.785156 -7.207031 L 1.785156 -5.625 Z M 17.488281 -5.625 "/></g></g></g><g fill="#000000" fill-opacity="1"><g transform="translate(167.845022, 274.775208)"><g/></g></g><g fill="#000000" fill-opacity="1"><g transform="translate(176.01849, 274.775208)"><g><path d="M 4.628906 0.261719 C 7.675781 0.261719 9.460938 -0.671875 9.460938 -3.367188 C 9.460938 -6.035156 7.410156 -6.738281 5.652344 -7.324219 C 4.246094 -7.792969 3.046875 -8.320312 3.046875 -9.726562 C 3.046875 -11.25 4.335938 -11.6875 5.917969 -11.6875 C 6.855469 -11.6875 7.851562 -11.570312 8.789062 -11.277344 L 9.167969 -12.832031 C 8.144531 -13.09375 6.941406 -13.269531 5.886719 -13.269531 C 3.222656 -13.269531 1.289062 -12.363281 1.289062 -9.695312 C 1.289062 -7.175781 3.222656 -6.386719 4.980469 -5.800781 C 6.445312 -5.300781 7.703125 -4.921875 7.703125 -3.367188 C 7.703125 -1.785156 6.53125 -1.289062 4.628906 -1.289062 C 3.632812 -1.289062 2.636719 -1.40625 1.582031 -1.699219 L 1.199219 -0.144531 C 2.3125 0.175781 3.515625 0.261719 4.628906 0.261719 Z M 4.628906 0.261719 "/></g></g></g><g fill="#000000" fill-opacity="1"><g transform="translate(189.43532, 274.775208)"><g><path d="M 3.894531 -7.585938 L 6.738281 -7.585938 L 6.738281 -9.167969 L 3.894531 -9.167969 L 3.894531 -12.976562 L 2.167969 -12.976562 L 2.167969 -9.167969 L 0.4375 -9.167969 L 0.4375 -7.585938 L 2.167969 -7.585938 L 2.167969 0 L 7 0 L 7 -1.582031 L 3.894531 -1.582031 Z M 3.894531 -7.585938 "/></g></g></g><g fill="#000000" fill-opacity="1"><g transform="translate(199.454219, 274.775208)"><g><path d="M 8.347656 -9.167969 L 8.347656 -1.582031 L 3.425781 -1.582031 L 3.425781 -9.167969 L 1.699219 -9.167969 L 1.699219 0 L 10.078125 0 L 10.078125 -9.167969 Z M 8.347656 -9.167969 "/></g></g></g><g fill="#000000" fill-opacity="1"><g transform="translate(213.984177, 274.775208)"><g><path d="M 8.757812 -7.734375 C 8.054688 -8.847656 6.824219 -9.492188 5.242188 -9.492188 C 2.546875 -9.492188 0.789062 -7.617188 0.789062 -4.570312 C 0.789062 -1.582031 2.636719 0.320312 5.273438 0.320312 C 6.855469 0.320312 8.054688 -0.351562 8.757812 -1.433594 L 8.789062 0 L 10.488281 0 L 10.488281 -16.492188 L 8.757812 -16.492188 Z M 5.566406 -1.257812 C 3.660156 -1.257812 2.488281 -2.605469 2.488281 -4.597656 C 2.488281 -6.5625 3.660156 -7.910156 5.566406 -7.910156 C 7.410156 -7.910156 8.757812 -6.621094 8.757812 -4.597656 C 8.757812 -2.519531 7.410156 -1.257812 5.566406 -1.257812 Z M 5.566406 -1.257812 "/></g></g></g><g fill="#000000" fill-opacity="1"><g transform="translate(228.924225, 274.775208)"><g><path d="M 5.066406 -2.078125 L 2.285156 -9.167969 L 0.4375 -9.167969 L 4.160156 -0.117188 L 1.289062 6.765625 L 2.871094 7.382812 L 9.550781 -9.167969 L 7.734375 -9.167969 Z M 5.066406 -2.078125 "/></g></g></g><g fill="#000000" fill-opacity="1"><g transform="translate(241.638043, 274.775208)"><g/></g></g><g fill="#000000" fill-opacity="1"><g transform="translate(249.81151, 274.775208)"><g><path d="M 7.585938 0.320312 C 8.4375 0.320312 9.375 0.203125 9.988281 0 L 9.695312 -1.667969 C 9.167969 -1.492188 8.40625 -1.40625 7.734375 -1.40625 C 4.773438 -1.40625 2.78125 -3.425781 2.78125 -6.503906 C 2.78125 -9.609375 4.628906 -11.570312 7.761719 -11.570312 C 8.320312 -11.570312 8.992188 -11.511719 9.667969 -11.308594 L 9.988281 -12.976562 C 9.167969 -13.242188 8.347656 -13.300781 7.675781 -13.300781 C 3.484375 -13.300781 0.996094 -10.546875 0.996094 -6.503906 C 0.996094 -2.488281 3.515625 0.320312 7.585938 0.320312 Z M 7.585938 0.320312 "/></g></g></g><g fill="#000000" fill-opacity="1"><g transform="translate(262.994003, 274.775208)"><g><path d="M 8.144531 -9.167969 L 1.902344 -9.167969 L 1.902344 -7.675781 L 6.472656 -7.675781 L 6.472656 -5.007812 C 5.976562 -5.59375 5.183594 -6.003906 4.042969 -6.003906 C 2.136719 -6.003906 0.789062 -4.890625 0.789062 -2.871094 C 0.789062 -0.789062 2.136719 0.320312 4.042969 0.320312 C 5.183594 0.320312 5.976562 -0.117188 6.472656 -0.703125 L 6.503906 0 L 8.144531 0 Z M 4.394531 -0.996094 C 3.222656 -0.996094 2.429688 -1.726562 2.429688 -2.871094 C 2.429688 -4.011719 3.222656 -4.6875 4.394531 -4.6875 C 5.683594 -4.6875 6.472656 -3.953125 6.472656 -2.871094 C 6.472656 -1.757812 5.683594 -0.996094 4.394531 -0.996094 Z M 4.394531 -0.996094 "/></g></g></g><g fill="#000000" fill-opacity="1"><g transform="translate(275.590652, 274.775208)"><g><path d="M 3.894531 -7.585938 L 6.738281 -7.585938 L 6.738281 -9.167969 L 3.894531 -9.167969 L 3.894531 -12.976562 L 2.167969 -12.976562 L 2.167969 -9.167969 L 0.4375 -9.167969 L 0.4375 -7.585938 L 2.167969 -7.585938 L 2.167969 0 L 7 0 L 7 -1.582031 L 3.894531 -1.582031 Z M 3.894531 -7.585938 "/></g></g></g><g fill="#000000" fill-opacity="1"><g transform="translate(285.609551, 274.775208)"><g/></g></g><g fill="#000000" fill-opacity="1"><g transform="translate(293.783018, 274.775208)"><g><path d="M 17.488281 -5.625 L 17.488281 -7.207031 L 1.785156 -7.207031 L 1.785156 -5.625 Z M 17.488281 -5.625 "/></g></g></g><g fill="#000000" fill-opacity="1"><g transform="translate(82.680612, 306.27291)"><g><path d="M 1.226562 -5.984375 C 1.6875 -7.097656 1.972656 -8.894531 2.050781 -10.152344 L 1.433594 -10.246094 C 1.320312 -8.957031 1.035156 -7.238281 0.589844 -6.207031 Z M 2.910156 1.144531 L 3.660156 1.144531 L 3.660156 -13.253906 L 2.910156 -13.253906 Z M 5.757812 -7.921875 C 5.570312 -8.640625 5.042969 -9.816406 4.550781 -10.738281 L 3.976562 -10.46875 C 4.453125 -9.546875 4.964844 -8.335938 5.171875 -7.605469 Z M 10.167969 -9.914062 L 13.015625 -9.914062 L 13.015625 -5.824219 L 10.054688 -5.824219 C 10.152344 -6.636719 10.167969 -7.414062 10.167969 -8.164062 Z M 15.355469 -5.089844 L 15.355469 -5.824219 L 13.761719 -5.824219 L 13.761719 -10.628906 L 10.167969 -10.628906 L 10.167969 -13.253906 L 9.402344 -13.253906 L 9.402344 -10.628906 L 6.09375 -10.628906 L 6.09375 -9.914062 L 9.402344 -9.914062 L 9.402344 -8.144531 C 9.402344 -7.414062 9.386719 -6.636719 9.308594 -5.824219 L 5.15625 -5.824219 L 5.15625 -5.089844 L 9.195312 -5.089844 C 8.816406 -3.023438 7.75 -0.890625 4.742188 0.636719 C 4.917969 0.765625 5.171875 1.050781 5.28125 1.226562 C 8.273438 -0.398438 9.433594 -2.578125 9.878906 -4.726562 C 10.789062 -2.003906 12.457031 0.222656 14.828125 1.210938 C 14.941406 0.988281 15.179688 0.683594 15.386719 0.523438 C 13.03125 -0.335938 11.375 -2.496094 10.515625 -5.089844 Z M 15.355469 -5.089844 "/></g></g></g><g fill="#000000" fill-opacity="1"><g transform="translate(107.917626, 306.27291)"><g><path d="M 14.972656 -5.410156 L 14.972656 -6.15625 L 8.335938 -6.15625 L 8.335938 -10.46875 L 14.289062 -10.46875 L 14.289062 -11.21875 L 8.335938 -11.21875 L 8.335938 -13.222656 L 7.558594 -13.222656 L 7.558594 -11.21875 L 1.734375 -11.21875 L 1.734375 -10.46875 L 7.558594 -10.46875 L 7.558594 -6.15625 L 0.96875 -6.15625 L 0.96875 -5.410156 L 6.921875 -5.410156 C 5.425781 -3.292969 2.910156 -1.191406 0.683594 -0.238281 C 0.875 -0.078125 1.097656 0.191406 1.226562 0.398438 C 3.453125 -0.699219 6 -2.847656 7.558594 -5.15625 L 7.558594 1.160156 L 8.335938 1.160156 L 8.335938 -5.15625 C 9.914062 -2.894531 12.488281 -0.652344 14.75 0.460938 C 14.890625 0.253906 15.117188 -0.03125 15.289062 -0.175781 C 13.0625 -1.160156 10.5 -3.277344 8.988281 -5.410156 Z M 3.167969 -9.640625 C 3.835938 -8.671875 4.488281 -7.335938 4.710938 -6.507812 L 5.425781 -6.792969 C 5.1875 -7.636719 4.503906 -8.925781 3.820312 -9.898438 Z M 11.121094 -6.445312 C 11.726562 -7.269531 12.457031 -8.625 13.015625 -9.707031 L 12.234375 -9.992188 C 11.835938 -8.988281 11.074219 -7.542969 10.484375 -6.667969 Z M 11.121094 -6.445312 "/></g></g></g><g fill="#000000" fill-opacity="1"><g transform="translate(133.154641, 306.27291)"><g><path d="M 7.683594 -10.152344 L 4.089844 -10.152344 C 4.105469 -11.105469 4.121094 -12.078125 4.121094 -13.046875 L 3.375 -13.046875 C 3.375 -12.078125 3.375 -11.105469 3.339844 -10.152344 L 0.90625 -10.152344 L 0.90625 -9.402344 L 3.324219 -9.402344 C 3.199219 -5.28125 2.6875 -1.449219 0.558594 0.699219 C 0.746094 0.8125 1.050781 1.035156 1.191406 1.175781 C 3.390625 -1.128906 3.929688 -5.105469 4.074219 -9.402344 L 6.921875 -9.402344 C 6.824219 -2.800781 6.667969 -0.507812 6.300781 -0.0625 C 6.15625 0.160156 6 0.191406 5.777344 0.175781 C 5.472656 0.175781 4.742188 0.175781 3.929688 0.113281 C 4.058594 0.316406 4.136719 0.652344 4.152344 0.875 C 4.851562 0.921875 5.601562 0.9375 6 0.90625 C 6.460938 0.875 6.730469 0.765625 6.96875 0.414062 C 7.460938 -0.238281 7.558594 -2.480469 7.683594 -9.707031 Z M 9.945312 -0.988281 L 9.945312 -10.4375 L 13.652344 -10.4375 L 13.652344 -0.988281 Z M 9.210938 -11.183594 L 9.210938 0.953125 L 9.945312 0.953125 L 9.945312 -0.238281 L 13.652344 -0.238281 L 13.652344 0.84375 L 14.414062 0.84375 L 14.414062 -11.183594 Z M 9.210938 -11.183594 "/></g></g></g><g fill="#000000" fill-opacity="1"><g transform="translate(158.391653, 306.27291)"><g><path d="M 4.933594 -12.125 C 6.015625 -11.359375 6.824219 -10.4375 7.527344 -9.417969 C 6.445312 -4.742188 4.421875 -1.464844 0.765625 0.492188 C 0.96875 0.652344 1.304688 0.9375 1.464844 1.097656 C 4.902344 -0.875 6.9375 -3.945312 8.128906 -8.433594 C 10.007812 -5.105469 10.929688 -1.175781 14.796875 0.988281 C 14.84375 0.730469 15.035156 0.367188 15.179688 0.160156 C 9.800781 -2.945312 10.46875 -9.179688 5.394531 -12.761719 Z M 4.933594 -12.125 "/></g></g></g><g fill="#000000" fill-opacity="1"><g transform="translate(183.62867, 306.27291)"><g><path d="M 4.214844 -11.011719 L 4.214844 -3.421875 L 2.035156 -3.421875 L 2.035156 -11.011719 Z M 4.933594 -11.757812 L 1.320312 -11.757812 L 1.320312 -1.464844 L 2.035156 -1.464844 L 2.035156 -2.671875 L 4.933594 -2.671875 Z M 9.929688 -6.761719 L 9.929688 -4.042969 L 7.082031 -4.042969 L 7.082031 -6.761719 Z M 13.621094 -4.042969 L 10.644531 -4.042969 L 10.644531 -6.761719 L 13.621094 -6.761719 Z M 10.644531 -0.445312 L 10.644531 -3.339844 L 13.621094 -3.339844 L 13.621094 -0.445312 Z M 7.082031 -0.445312 L 7.082031 -3.339844 L 9.929688 -3.339844 L 9.929688 -0.445312 Z M 6.347656 1.175781 L 7.082031 1.175781 L 7.082031 0.269531 L 13.621094 0.269531 L 13.621094 1.082031 L 14.367188 1.082031 L 14.367188 -7.476562 L 6.347656 -7.476562 Z M 12.601562 -10.976562 L 12.601562 -13.03125 L 11.871094 -13.03125 L 11.871094 -10.976562 L 8.816406 -10.976562 L 8.816406 -13.03125 L 8.082031 -13.03125 L 8.082031 -10.976562 L 5.617188 -10.976562 L 5.617188 -10.246094 L 8.082031 -10.246094 L 8.082031 -8.210938 L 8.816406 -8.210938 L 8.816406 -10.246094 L 11.871094 -10.246094 L 11.871094 -8.210938 L 12.601562 -8.210938 L 12.601562 -10.246094 L 15.148438 -10.246094 L 15.148438 -10.976562 Z M 12.601562 -10.976562 "/></g></g></g><g fill="#000000" fill-opacity="1"><g transform="translate(208.865687, 306.27291)"><g><path d="M 4.214844 -11.011719 L 4.214844 -3.421875 L 2.035156 -3.421875 L 2.035156 -11.011719 Z M 4.933594 -11.757812 L 1.320312 -11.757812 L 1.320312 -1.464844 L 2.035156 -1.464844 L 2.035156 -2.671875 L 4.933594 -2.671875 Z M 9.929688 -6.761719 L 9.929688 -4.042969 L 7.082031 -4.042969 L 7.082031 -6.761719 Z M 13.621094 -4.042969 L 10.644531 -4.042969 L 10.644531 -6.761719 L 13.621094 -6.761719 Z M 10.644531 -0.445312 L 10.644531 -3.339844 L 13.621094 -3.339844 L 13.621094 -0.445312 Z M 7.082031 -0.445312 L 7.082031 -3.339844 L 9.929688 -3.339844 L 9.929688 -0.445312 Z M 6.347656 1.175781 L 7.082031 1.175781 L 7.082031 0.269531 L 13.621094 0.269531 L 13.621094 1.082031 L 14.367188 1.082031 L 14.367188 -7.476562 L 6.347656 -7.476562 Z M 12.601562 -10.976562 L 12.601562 -13.03125 L 11.871094 -13.03125 L 11.871094 -10.976562 L 8.816406 -10.976562 L 8.816406 -13.03125 L 8.082031 -13.03125 L 8.082031 -10.976562 L 5.617188 -10.976562 L 5.617188 -10.246094 L 8.082031 -10.246094 L 8.082031 -8.210938 L 8.816406 -8.210938 L 8.816406 -10.246094 L 11.871094 -10.246094 L 11.871094 -8.210938 L 12.601562 -8.210938 L 12.601562 -10.246094 L 15.148438 -10.246094 L 15.148438 -10.976562 Z M 12.601562 -10.976562 "/></g></g></g><g fill="#000000" fill-opacity="1"><g transform="translate(234.102704, 306.27291)"><g><path d="M 6.046875 -6.207031 L 2.242188 -6.207031 L 2.242188 -10.007812 L 6.046875 -10.007812 Z M 2.242188 -1.242188 L 2.242188 -5.503906 L 6.046875 -5.503906 L 6.046875 -1.242188 Z M 4.058594 -13.300781 C 3.898438 -12.554688 3.5625 -11.457031 3.292969 -10.707031 L 1.527344 -10.707031 L 1.527344 0.78125 L 2.242188 0.78125 L 2.242188 -0.523438 L 6.777344 -0.523438 L 6.777344 -10.707031 L 4.007812 -10.707031 C 4.28125 -11.390625 4.597656 -12.316406 4.867188 -13.109375 Z M 14.589844 -10.707031 L 9.640625 -10.707031 C 9.929688 -11.503906 10.167969 -12.347656 10.359375 -13.191406 L 9.609375 -13.363281 C 9.117188 -11.105469 8.289062 -8.894531 7.175781 -7.445312 C 7.367188 -7.335938 7.699219 -7.144531 7.828125 -7.03125 C 8.402344 -7.84375 8.925781 -8.863281 9.386719 -9.992188 L 13.84375 -9.992188 C 13.605469 -3.199219 13.332031 -0.730469 12.808594 -0.160156 C 12.648438 0.046875 12.457031 0.078125 12.140625 0.078125 C 11.789062 0.078125 10.851562 0.0625 9.800781 -0.015625 C 9.945312 0.191406 10.023438 0.492188 10.054688 0.730469 C 10.929688 0.796875 11.855469 0.8125 12.347656 0.78125 C 12.839844 0.746094 13.160156 0.636719 13.460938 0.285156 C 14.097656 -0.460938 14.320312 -2.878906 14.589844 -10.261719 Z M 12.125 -3.578125 C 11.613281 -4.535156 10.46875 -6.078125 9.53125 -7.222656 L 8.910156 -6.875 C 9.863281 -5.726562 10.976562 -4.136719 11.488281 -3.167969 Z M 12.125 -3.578125 "/></g></g></g><g fill="#000000" fill-opacity="1"><g transform="translate(259.339721, 306.27291)"><g><path d="M 8.878906 -10.835938 C 8.671875 -11.519531 8.113281 -12.570312 7.558594 -13.363281 L 6.890625 -13.125 C 7.429688 -12.332031 7.988281 -11.25 8.179688 -10.550781 Z M 2.164062 -9.832031 L 13.875 -9.832031 L 13.875 -7.589844 L 14.621094 -7.589844 L 14.621094 -10.53125 L 11.820312 -10.53125 C 12.394531 -11.203125 13.015625 -12.078125 13.523438 -12.839844 L 12.792969 -13.160156 C 12.378906 -12.378906 11.613281 -11.265625 11.011719 -10.53125 L 4.265625 -10.53125 L 4.820312 -10.867188 C 4.550781 -11.472656 3.867188 -12.410156 3.246094 -13.09375 L 2.609375 -12.792969 C 3.214844 -12.109375 3.867188 -11.167969 4.167969 -10.53125 L 1.433594 -10.53125 L 1.433594 -7.589844 L 2.164062 -7.589844 Z M 14.957031 -4.28125 L 8.304688 -4.28125 L 8.304688 -5.15625 C 9.769531 -5.742188 11.390625 -6.636719 12.425781 -7.589844 L 11.917969 -7.988281 L 11.742188 -7.941406 L 3.578125 -7.941406 L 3.578125 -7.238281 L 10.882812 -7.238281 C 9.960938 -6.585938 8.671875 -5.917969 7.542969 -5.519531 L 7.542969 -4.28125 L 1.035156 -4.28125 L 1.035156 -3.5625 L 7.542969 -3.5625 L 7.542969 0.09375 C 7.542969 0.316406 7.476562 0.398438 7.144531 0.429688 C 6.824219 0.460938 5.824219 0.460938 4.453125 0.429688 C 4.597656 0.652344 4.757812 0.9375 4.820312 1.160156 C 6.316406 1.160156 7.175781 1.160156 7.667969 1.035156 C 8.144531 0.890625 8.304688 0.652344 8.304688 0.09375 L 8.304688 -3.5625 L 14.957031 -3.5625 Z M 14.957031 -4.28125 "/></g></g></g><g fill="#000000" fill-opacity="1"><g transform="translate(284.576727, 306.27291)"><g><path d="M 11.375 -5.074219 C 7.859375 -3.898438 4.074219 -2.640625 1.796875 -1.925781 L 2.070312 -1.144531 C 4.488281 -1.957031 8.164062 -3.199219 11.519531 -4.359375 Z M 3.800781 -9.101562 C 5.3125 -8.082031 7.238281 -6.636719 8.164062 -5.710938 L 8.71875 -6.316406 C 7.75 -7.207031 5.824219 -8.609375 4.3125 -9.59375 Z M 13.9375 -11.949219 L 2.003906 -11.949219 L 2.003906 -11.234375 L 13.191406 -11.234375 C 13.078125 -3.308594 12.902344 -0.460938 12.425781 0.09375 C 12.265625 0.300781 12.078125 0.351562 11.804688 0.335938 C 11.425781 0.335938 10.46875 0.335938 9.402344 0.253906 C 9.546875 0.460938 9.625 0.765625 9.640625 1.003906 C 10.5 1.050781 11.457031 1.082031 12.011719 1.050781 C 12.523438 1.019531 12.824219 0.875 13.125 0.476562 C 13.699219 -0.285156 13.828125 -2.945312 13.9375 -11.472656 Z M 13.9375 -11.949219 "/></g></g></g><g fill="#000000" fill-opacity="1"><g transform="translate(309.813733, 306.27291)"><g><path d="M 7.621094 -13.015625 L 7.621094 -0.046875 C 7.621094 0.253906 7.527344 0.367188 7.207031 0.367188 C 6.875 0.382812 5.777344 0.398438 4.535156 0.367188 C 4.660156 0.605469 4.804688 0.953125 4.867188 1.175781 C 6.332031 1.175781 7.238281 1.160156 7.734375 1.035156 C 8.210938 0.90625 8.417969 0.636719 8.417969 -0.0625 L 8.417969 -13.015625 Z M 11.457031 -9.054688 C 12.886719 -6.808594 14.207031 -3.851562 14.605469 -2.003906 L 15.402344 -2.324219 C 14.988281 -4.199219 13.621094 -7.113281 12.1875 -9.339844 Z M 3.46875 -9.261719 C 3.039062 -7.097656 2.117188 -4.375 0.621094 -2.65625 C 0.84375 -2.5625 1.160156 -2.371094 1.320312 -2.242188 C 2.832031 -4.007812 3.785156 -6.824219 4.3125 -9.101562 Z M 3.46875 -9.261719 "/></g></g></g><g fill="#000000" fill-opacity="1"><g transform="translate(335.050739, 306.27291)"><g><path d="M 4.4375 -7.796875 L 11.550781 -7.796875 L 11.550781 -6.15625 L 4.4375 -6.15625 Z M 14.160156 -4.183594 L 8.289062 -4.183594 C 8.304688 -4.375 8.304688 -4.550781 8.304688 -4.742188 L 8.304688 -5.535156 L 12.300781 -5.535156 L 12.300781 -8.433594 L 3.707031 -8.433594 L 3.707031 -5.535156 L 7.574219 -5.535156 L 7.574219 -4.757812 C 7.574219 -4.566406 7.574219 -4.375 7.542969 -4.183594 L 1.863281 -4.183594 L 1.863281 1.082031 L 2.625 1.082031 L 2.625 -3.5 L 7.382812 -3.5 C 7.046875 -2.53125 6.0625 -1.542969 3.4375 -0.84375 C 3.613281 -0.730469 3.835938 -0.460938 3.945312 -0.285156 C 6.015625 -0.875 7.113281 -1.640625 7.699219 -2.464844 C 9.164062 -1.863281 10.789062 -0.953125 11.664062 -0.269531 L 12.042969 -0.859375 C 11.167969 -1.542969 9.46875 -2.433594 8.003906 -3.039062 C 8.066406 -3.183594 8.128906 -3.339844 8.164062 -3.5 L 13.398438 -3.5 L 13.398438 0.144531 C 13.398438 0.335938 13.332031 0.398438 13.09375 0.414062 C 12.871094 0.429688 12.042969 0.429688 11.074219 0.414062 C 11.183594 0.605469 11.296875 0.859375 11.34375 1.066406 C 12.601562 1.066406 13.300781 1.082031 13.683594 0.953125 C 14.050781 0.8125 14.160156 0.589844 14.160156 0.144531 Z M 5.984375 -10.675781 C 4.882812 -9.898438 2.832031 -9.019531 1.398438 -8.640625 C 1.558594 -8.464844 1.796875 -8.195312 1.925781 -8.019531 C 3.308594 -8.480469 5.410156 -9.46875 6.570312 -10.324219 Z M 9.210938 -10.070312 C 10.882812 -9.5625 13 -8.671875 14.082031 -8.050781 L 14.496094 -8.671875 C 13.363281 -9.308594 11.234375 -10.121094 9.59375 -10.628906 Z M 8.71875 -11.789062 C 8.527344 -12.25 8.164062 -12.886719 7.859375 -13.347656 L 7.113281 -13.125 C 7.367188 -12.730469 7.652344 -12.21875 7.859375 -11.789062 L 1.351562 -11.789062 L 1.351562 -9.417969 L 2.117188 -9.417969 L 2.117188 -11.121094 L 13.8125 -11.121094 L 13.8125 -9.449219 L 14.574219 -9.449219 L 14.574219 -11.789062 Z M 8.71875 -11.789062 "/></g></g></g><g fill="#000000" fill-opacity="1"><g transform="translate(360.287745, 306.27291)"><g><path d="M 4.566406 -10.945312 L 4.566406 -3.820312 L 2.085938 -3.820312 L 2.085938 -10.945312 Z M 5.28125 -11.664062 L 1.367188 -11.664062 L 1.367188 -1.496094 L 2.085938 -1.496094 L 2.085938 -3.085938 L 5.28125 -3.085938 Z M 10.375 -11.441406 L 10.375 -5.871094 L 7.667969 -5.871094 L 7.667969 -11.441406 Z M 13.875 -5.871094 L 11.105469 -5.871094 L 11.105469 -11.441406 L 13.875 -11.441406 Z M 9.003906 0.09375 C 7.90625 0.09375 7.667969 -0.128906 7.667969 -1.003906 L 7.667969 -5.171875 L 13.875 -5.171875 L 13.875 -4.105469 L 14.621094 -4.105469 L 14.621094 -12.171875 L 6.921875 -12.171875 L 6.921875 -1.019531 C 6.921875 0.460938 7.429688 0.828125 9.019531 0.828125 L 13.269531 0.828125 C 14.828125 0.828125 15.097656 0.128906 15.242188 -2.003906 C 15.019531 -2.050781 14.71875 -2.179688 14.527344 -2.324219 C 14.398438 -0.398438 14.238281 0.09375 13.285156 0.09375 Z M 9.003906 0.09375 "/></g></g></g></svg>